<svg id="visual" viewBox="0 0 900 600" width="900" height="600" xmlns="http://www.w3.org/2000/svg" xmlns:xlink="http://www.w3.org/1999/xlink" version="1.1"><path d="M0 43L53 43L53 49L106 49L106 61L159 61L159 25L212 25L212 31L265 31L265 55L318 55L318 37L371 37L371 37L424 37L424 49L476 49L476 43L529 43L529 31L582 31L582 37L635 37L635 61L688 61L688 49L741 49L741 49L794 49L794 55L847 55L847 61L900 61L900 37L900 0L900 0L847 0L847 0L794 0L794 0L741 0L741 0L688 0L688 0L635 0L635 0L582 0L582 0L529 0L529 0L476 0L476 0L424 0L424 0L371 0L371 0L318 0L318 0L265 0L265 0L212 0L212 0L159 0L159 0L106 0L106 0L53 0L53 0L0 0Z" fill="#d3d7d8"></path><path d="M0 85L53 85L53 127L106 127L106 109L159 109L159 121L212 121L212 139L265 139L265 151L318 151L318 115L371 115L371 139L424 139L424 157L476 157L476 103L529 103L529 103L582 103L582 109L635 109L635 109L688 109L688 127L741 127L741 109L794 109L794 91L847 91L847 133L900 133L900 73L900 35L900 59L847 59L847 53L794 53L794 47L741 47L741 47L688 47L688 59L635 59L635 35L582 35L582 29L529 29L529 41L476 41L476 47L424 47L424 35L371 35L371 35L318 35L318 53L265 53L265 29L212 29L212 23L159 23L159 59L106 59L106 47L53 47L53 41L0 41Z" fill="#e5e8e8"></path><path d="M0 223L53 223L53 181L106 181L106 247L159 247L159 223L212 223L212 223L265 223L265 283L318 283L318 187L371 187L371 187L424 187L424 217L476 217L476 211L529 211L529 193L582 193L582 175L635 175L635 211L688 211L688 181L741 181L741 187L794 187L794 151L847 151L847 181L900 181L900 163L900 71L900 131L847 131L847 89L794 89L794 107L741 107L741 125L688 125L688 107L635 107L635 107L582 107L582 101L529 101L529 101L476 101L476 155L424 155L424 137L371 137L371 113L318 113L318 149L265 149L265 137L212 137L212 119L159 119L159 107L106 107L106 125L53 125L53 83L0 83Z" fill="#f8f8f8"></path><path d="M0 271L53 271L53 223L106 223L106 301L159 301L159 283L212 283L212 289L265 289L265 325L318 325L318 265L371 265L371 253L424 253L424 247L476 247L476 247L529 247L529 259L582 259L582 229L635 229L635 277L688 277L688 265L741 265L741 217L794 217L794 241L847 241L847 223L900 223L900 229L900 161L900 179L847 179L847 149L794 149L794 185L741 185L741 179L688 179L688 209L635 209L635 173L582 173L582 191L529 191L529 209L476 209L476 215L424 215L424 185L371 185L371 185L318 185L318 281L265 281L265 221L212 221L212 221L159 221L159 245L106 245L106 179L53 179L53 221L0 221Z" fill="#ffffff"></path><path d="M0 325L53 325L53 259L106 259L106 355L159 355L159 361L212 361L212 337L265 337L265 349L318 349L318 337L371 337L371 301L424 301L424 295L476 295L476 313L529 313L529 337L582 337L582 271L635 271L635 307L688 307L688 331L741 331L741 283L794 283L794 265L847 265L847 295L900 295L900 277L900 227L900 221L847 221L847 239L794 239L794 215L741 215L741 263L688 263L688 275L635 275L635 227L582 227L582 257L529 257L529 245L476 245L476 245L424 245L424 251L371 251L371 263L318 263L318 323L265 323L265 287L212 287L212 281L159 281L159 299L106 299L106 221L53 221L53 269L0 269Z" fill="#f8f8f8"></path><path d="M0 535L53 535L53 475L106 475L106 457L159 457L159 493L212 493L212 463L265 463L265 463L318 463L318 481L371 481L371 427L424 427L424 439L476 439L476 421L529 421L529 505L582 505L582 427L635 427L635 451L688 451L688 421L741 421L741 403L794 403L794 475L847 475L847 505L900 505L900 391L900 275L900 293L847 293L847 263L794 263L794 281L741 281L741 329L688 329L688 305L635 305L635 269L582 269L582 335L529 335L529 311L476 311L476 293L424 293L424 299L371 299L371 335L318 335L318 347L265 347L265 335L212 335L212 359L159 359L159 353L106 353L106 257L53 257L53 323L0 323Z" fill="#e5e8e8"></path><path d="M0 601L53 601L53 601L106 601L106 601L159 601L159 601L212 601L212 601L265 601L265 601L318 601L318 601L371 601L371 601L424 601L424 601L476 601L476 601L529 601L529 601L582 601L582 601L635 601L635 601L688 601L688 601L741 601L741 601L794 601L794 601L847 601L847 601L900 601L900 601L900 389L900 503L847 503L847 473L794 473L794 401L741 401L741 419L688 419L688 449L635 449L635 425L582 425L582 503L529 503L529 419L476 419L476 437L424 437L424 425L371 425L371 479L318 479L318 461L265 461L265 461L212 461L212 491L159 491L159 455L106 455L106 473L53 473L53 533L0 533Z" fill="#d3d7d8"></path></svg>